<svg xmlns="http://www.w3.org/2000/svg" width="1075" height="780"><rect width="1075" height="780" x="0" y="0" fill="#FFFFFF" id="background"/><g transform="translate(150,10)" id="viz"><g id="axis"><g transform="translate(0,720)" fill="none" font-size="10" font-family="sans-serif" text-anchor="middle"><path class="domain" stroke="currentColor" d="M0.5,6V0.5H650.5V6"/><g class="tick" opacity="1" transform="translate(0.5,0)"><line stroke="currentColor" y2="6"/><text fill="currentColor" y="9" dy="0.71em">February</text></g><g class="tick" opacity="1" transform="translate(56.768656716417915,0)"><line stroke="currentColor" y2="6"/><text fill="currentColor" y="9" dy="0.71em">March</text></g><g class="tick" opacity="1" transform="translate(116.8370646766169,0)"><line stroke="currentColor" y2="6"/><text fill="currentColor" y="9" dy="0.71em">April</text></g><g class="tick" opacity="1" transform="translate(175.0460199004975,0)"><line stroke="currentColor" y2="6"/><text fill="currentColor" y="9" dy="0.71em">May</text></g><g class="tick" opacity="1" transform="translate(235.1952736318408,0)"><line stroke="currentColor" y2="6"/><text fill="currentColor" y="9" dy="0.71em">June</text></g><g class="tick" opacity="1" transform="translate(293.4042288557214,0)"><line stroke="currentColor" y2="6"/><text fill="currentColor" y="9" dy="0.71em">July</text></g><g class="tick" opacity="1" transform="translate(353.5534825870647,0)"><line stroke="currentColor" y2="6"/><text fill="currentColor" y="9" dy="0.71em">August</text></g><g class="tick" opacity="1" transform="translate(413.702736318408,0)"><line stroke="currentColor" y2="6"/><text fill="currentColor" y="9" dy="0.71em">September</text></g><g class="tick" opacity="1" transform="translate(471.91169154228857,0)"><line stroke="currentColor" y2="6"/><text fill="currentColor" y="9" dy="0.71em">October</text></g><g class="tick" opacity="1" transform="translate(532.0609452736318,0)"><line stroke="currentColor" y2="6"/><text fill="currentColor" y="9" dy="0.71em">November</text></g><g class="tick" opacity="1" transform="translate(590.3507462686567,0)"><line stroke="currentColor" y2="6"/><text fill="currentColor" y="9" dy="0.71em">December</text></g><g class="tick" opacity="1" transform="translate(650.5,0)"><line stroke="currentColor" y2="6"/><text fill="currentColor" y="9" dy="0.71em">2025</text></g><text x="650" dy="-5" text-anchor="end" style="font-family: Arial, sans-serif; font-size: 12px; fill: rgb(123, 123, 123); font-weight: bold;">2024
Country Overshoot Day </text></g><g fill="none" font-size="10" font-family="sans-serif" text-anchor="end"><path class="domain" stroke="currentColor" d="M0.5,0.5V720.5"/><g class="tick" opacity="1" transform="translate(0,45.5)"><line stroke="currentColor" x2="650" style="stroke: rgb(204, 204, 204);"/><text fill="currentColor" x="-3" dy="0.32em">Africa</text></g><g class="tick" opacity="1" transform="translate(0,135.5)"><line stroke="currentColor" x2="650" style="stroke: rgb(204, 204, 204);"/><text fill="currentColor" x="-3" dy="0.32em">Asia-Pacific</text></g><g class="tick" opacity="1" transform="translate(0,225.5)"><line stroke="currentColor" x2="650" style="stroke: rgb(204, 204, 204);"/><text fill="currentColor" x="-3" dy="0.32em">Central America/Caribbean</text></g><g class="tick" opacity="1" transform="translate(0,315.5)"><line stroke="currentColor" x2="650" style="stroke: rgb(204, 204, 204);"/><text fill="currentColor" x="-3" dy="0.32em">EU-27</text></g><g class="tick" opacity="1" transform="translate(0,405.5)"><line stroke="currentColor" x2="650" style="stroke: rgb(204, 204, 204);"/><text fill="currentColor" x="-3" dy="0.32em">Middle East/Central Asia</text></g><g class="tick" opacity="1" transform="translate(0,495.5)"><line stroke="currentColor" x2="650" style="stroke: rgb(204, 204, 204);"/><text fill="currentColor" x="-3" dy="0.32em">North America</text></g><g class="tick" opacity="1" transform="translate(0,585.5)"><line stroke="currentColor" x2="650" style="stroke: rgb(204, 204, 204);"/><text fill="currentColor" x="-3" dy="0.32em">Other Europe</text></g><g class="tick" opacity="1" transform="translate(0,675.5)"><line stroke="currentColor" x2="650" style="stroke: rgb(204, 204, 204);"/><text fill="currentColor" x="-3" dy="0.32em">South America</text></g><text x="4" text-anchor="start" dominant-baseline="hanging" style="font-family: Arial, sans-serif; font-size: 12px; fill: rgb(123, 123, 123); font-weight: bold;">Region</text></g></g><g id="visualization"><g id="Africa"><g id="circles"><circle id="" cx="417.7300559242168" cy="45" r="3.940985396556416" style="fill: rgb(31, 119, 180);"/><circle id="" cx="427.6114731253274" cy="45" r="3.940985396556416" style="fill: rgb(31, 119, 180);"/><circle id="" cx="477.23258706467664" cy="45" r="3.3987557280984753" style="fill: rgb(31, 119, 180);"/><circle id="" cx="374.39676616915426" cy="45" r="4.198516955442131" style="fill: rgb(31, 119, 180);"/><circle id="" cx="523.7997512437811" cy="45" r="3.111960646981346" style="fill: rgb(31, 119, 180);"/><circle id="" cx="308.42661691542287" cy="45" r="4.926199520307989" style="fill: rgb(31, 119, 180);"/><circle id="" cx="457.82960199004975" cy="45" r="3.674716540896798" style="fill: rgb(31, 119, 180);"/><circle id="" cx="549.1044776119403" cy="45" r="3.111960646981346" style="fill: rgb(31, 119, 180);"/><circle id="" cx="640.2985074626865" cy="45" r="2.5" style="fill: rgb(31, 119, 180);"/><circle id="" cx="407.8487694579186" cy="45" r="3.940985396556416" style="fill: rgb(31, 119, 180);"/><circle id="" cx="349.1728855721393" cy="45" r="4.448118741714103" style="fill: rgb(31, 119, 180);"/><circle id="" cx="630.5970149253732" cy="45" r="2.5" style="fill: rgb(31, 119, 180);"/><circle id="" cx="387.9788557213931" cy="45" r="4.198516955442131" style="fill: rgb(31, 119, 180);"/><circle id="" cx="244.3967661691542" cy="45" r="5.812098534624664" style="fill: rgb(31, 119, 180);"/><circle id="" cx="271.56094527363183" cy="45" r="5.3797134553586385" style="fill: rgb(31, 119, 180);"/><circle id="" cx="580.1492537313433" cy="45" r="2.8129452387519978" style="fill: rgb(31, 119, 180);"/></g><g id="labels"><g id="" transform="translate(417.7300559242168,45)"><text x="0" y="0" text-anchor="middle" dominant-baseline="text-before-edge" transform="translate(0,0)"/></g><g id="" transform="translate(427.6114731253274,45)"><text x="0" y="0" text-anchor="middle" dominant-baseline="text-before-edge" transform="translate(0,0)"/></g><g id="" transform="translate(477.23258706467664,45)"><text x="0" y="0" text-anchor="middle" dominant-baseline="text-before-edge" transform="translate(0,0)"/></g><g id="" transform="translate(374.39676616915426,45)"><text x="0" y="0" text-anchor="middle" dominant-baseline="text-before-edge" transform="translate(0,0)"/></g><g id="" transform="translate(523.7997512437811,45)"><text x="0" y="0" text-anchor="middle" dominant-baseline="text-before-edge" transform="translate(0,0)"/></g><g id="" transform="translate(308.42661691542287,45)"><text x="0" y="0" text-anchor="middle" dominant-baseline="text-before-edge" transform="translate(0,0)"/></g><g id="" transform="translate(457.82960199004975,45)"><text x="0" y="0" text-anchor="middle" dominant-baseline="text-before-edge" transform="translate(0,0)"/></g><g id="" transform="translate(549.1044776119403,45)"><text x="0" y="0" text-anchor="middle" dominant-baseline="text-before-edge" transform="translate(0,0)"/></g><g id="" transform="translate(640.2985074626865,45)"><text x="0" y="0" text-anchor="middle" dominant-baseline="text-before-edge" transform="translate(0,0)"/></g><g id="" transform="translate(407.8487694579186,45)"><text x="0" y="0" text-anchor="middle" dominant-baseline="text-before-edge" transform="translate(0,0)"/></g><g id="" transform="translate(349.1728855721393,45)"><text x="0" y="0" text-anchor="middle" dominant-baseline="text-before-edge" transform="translate(0,0)"/></g><g id="" transform="translate(630.5970149253732,45)"><text x="0" y="0" text-anchor="middle" dominant-baseline="text-before-edge" transform="translate(0,0)"/></g><g id="" transform="translate(387.9788557213931,45)"><text x="0" y="0" text-anchor="middle" dominant-baseline="text-before-edge" transform="translate(0,0)"/></g><g id="" transform="translate(244.3967661691542,45)"><text x="0" y="0" text-anchor="middle" dominant-baseline="text-before-edge" transform="translate(0,0)"/></g><g id="" transform="translate(271.56094527363183,45)"><text x="0" y="0" text-anchor="middle" dominant-baseline="text-before-edge" transform="translate(0,0)"/></g><g id="" transform="translate(580.1492537313433,45)"><text x="0" y="0" text-anchor="middle" dominant-baseline="text-before-edge" transform="translate(0,0)"/></g></g></g><g id="Asia-Pacific"><g id="circles"><circle id="" cx="126.03179006394163" cy="125.42915184590937" r="8.586956546748844" style="fill: rgb(255, 127, 14);"/><circle id="" cx="164.8956830204145" cy="135.0010519063404" r="7.3772245364527445" style="fill: rgb(255, 127, 14);"/><circle id="" cx="64.07874173088966" cy="135.06189258406704" r="10.709161197675076" style="fill: rgb(255, 127, 14);"/><circle id="" cx="238.03155041408306" cy="135" r="6.021235326705823" style="fill: rgb(255, 127, 14);"/><circle id="" cx="318.1281094527363" cy="135" r="4.926199520307989" style="fill: rgb(255, 127, 14);"/><circle id="" cx="223.78425645770503" cy="135" r="6.226058629672196" style="fill: rgb(255, 127, 14);"/><circle id="" cx="575.36615923886" cy="135" r="2.8129452387519978" style="fill: rgb(255, 127, 14);"/><circle id="" cx="204.60315080228355" cy="135" r="6.6237658412110845" style="fill: rgb(255, 127, 14);"/><circle id="" cx="110.77178781167476" cy="137.30672828270437" r="8.750343955757963" style="fill: rgb(255, 127, 14);"/><circle id="" cx="514.0982587064677" cy="135" r="3.111960646981346" style="fill: rgb(255, 127, 14);"/><circle id="" cx="189.162292616886" cy="135" r="6.817092344186451" style="fill: rgb(255, 127, 14);"/><circle id="" cx="87.35544890141666" cy="134.9346036148444" r="10.56789401092382" style="fill: rgb(255, 127, 14);"/><circle id="" cx="143.44855170585373" cy="132.6143296039467" r="8.253600303902259" style="fill: rgb(255, 127, 14);"/><circle id="" cx="368.22809995998074" cy="135" r="4.198516955442131" style="fill: rgb(255, 127, 14);"/><circle id="" cx="128.7570830705335" cy="144.40955456052296" r="8.586956546748844" style="fill: rgb(255, 127, 14);"/><circle id="" cx="582.9920497163639" cy="135" r="2.8129452387519978" style="fill: rgb(255, 127, 14);"/><circle id="" cx="395.7400497512438" cy="135" r="4.198516955442131" style="fill: rgb(255, 127, 14);"/><circle id="" cx="285.14303482587064" cy="135" r="5.155792280106189" style="fill: rgb(255, 127, 14);"/><circle id="" cx="523.7997512437811" cy="135" r="3.111960646981346" style="fill: rgb(255, 127, 14);"/><circle id="" cx="378.625133870865" cy="135" r="4.198516955442131" style="fill: rgb(255, 127, 14);"/></g><g id="labels"><g id="" transform="translate(126.03179006394163,125.42915184590937)"><text x="0" y="0" text-anchor="middle" dominant-baseline="text-before-edge" transform="translate(0,0)"/></g><g id="" transform="translate(164.8956830204145,135.0010519063404)"><text x="0" y="0" text-anchor="middle" dominant-baseline="text-before-edge" transform="translate(0,0)"/></g><g id="" transform="translate(64.07874173088966,135.06189258406704)"><text x="0" y="0" text-anchor="middle" dominant-baseline="text-before-edge" transform="translate(0,0)"/></g><g id="" transform="translate(238.03155041408306,135)"><text x="0" y="0" text-anchor="middle" dominant-baseline="text-before-edge" transform="translate(0,0)"/></g><g id="" transform="translate(318.1281094527363,135)"><text x="0" y="0" text-anchor="middle" dominant-baseline="text-before-edge" transform="translate(0,0)"/></g><g id="" transform="translate(223.78425645770503,135)"><text x="0" y="0" text-anchor="middle" dominant-baseline="text-before-edge" transform="translate(0,0)"/></g><g id="" transform="translate(575.36615923886,135)"><text x="0" y="0" text-anchor="middle" dominant-baseline="text-before-edge" transform="translate(0,0)"/></g><g id="" transform="translate(204.60315080228355,135)"><text x="0" y="0" text-anchor="middle" dominant-baseline="text-before-edge" transform="translate(0,0)"/></g><g id="" transform="translate(110.77178781167476,137.30672828270437)"><text x="0" y="0" text-anchor="middle" dominant-baseline="text-before-edge" transform="translate(0,0)"/></g><g id="" transform="translate(514.0982587064677,135)"><text x="0" y="0" text-anchor="middle" dominant-baseline="text-before-edge" transform="translate(0,0)"/></g><g id="" transform="translate(189.162292616886,135)"><text x="0" y="0" text-anchor="middle" dominant-baseline="text-before-edge" transform="translate(0,0)"/></g><g id="" transform="translate(87.35544890141666,134.9346036148444)"><text x="0" y="0" text-anchor="middle" dominant-baseline="text-before-edge" transform="translate(0,0)"/></g><g id="" transform="translate(143.44855170585373,132.6143296039467)"><text x="0" y="0" text-anchor="middle" dominant-baseline="text-before-edge" transform="translate(0,0)"/></g><g id="" transform="translate(368.22809995998074,135)"><text x="0" y="0" text-anchor="middle" dominant-baseline="text-before-edge" transform="translate(0,0)"/></g><g id="" transform="translate(128.7570830705335,144.40955456052296)"><text x="0" y="0" text-anchor="middle" dominant-baseline="text-before-edge" transform="translate(0,0)"/></g><g id="" transform="translate(582.9920497163639,135)"><text x="0" y="0" text-anchor="middle" dominant-baseline="text-before-edge" transform="translate(0,0)"/></g><g id="" transform="translate(395.7400497512438,135)"><text x="0" y="0" text-anchor="middle" dominant-baseline="text-before-edge" transform="translate(0,0)"/></g><g id="" transform="translate(285.14303482587064,135)"><text x="0" y="0" text-anchor="middle" dominant-baseline="text-before-edge" transform="translate(0,0)"/></g><g id="" transform="translate(523.7997512437811,135)"><text x="0" y="0" text-anchor="middle" dominant-baseline="text-before-edge" transform="translate(0,0)"/></g><g id="" transform="translate(378.625133870865,135)"><text x="0" y="0" text-anchor="middle" dominant-baseline="text-before-edge" transform="translate(0,0)"/></g></g></g><g id="Central America/Caribbean"><g id="circles"><circle id="" cx="302.60572139303486" cy="225" r="4.926199520307989" style="fill: rgb(44, 160, 44);"/><circle id="" cx="266.3791458897039" cy="225" r="5.59836368102935" style="fill: rgb(44, 160, 44);"/><circle id="" cx="81.41169154228855" cy="225" r="10.425234928385917" style="fill: rgb(44, 160, 44);"/><circle id="" cx="351.113184079602" cy="225" r="4.448118741714103" style="fill: rgb(44, 160, 44);"/><circle id="" cx="496.1174134261303" cy="225" r="3.3987557280984753" style="fill: rgb(44, 160, 44);"/><circle id="" cx="337.53109452736317" cy="225" r="4.6904810604403" style="fill: rgb(44, 160, 44);"/><circle id="" cx="533.5282586467627" cy="225" r="3.111960646981346" style="fill: rgb(44, 160, 44);"/><circle id="" cx="486.9340796019901" cy="225" r="3.3987557280984753" style="fill: rgb(44, 160, 44);"/><circle id="" cx="541.7519369152976" cy="225" r="3.111960646981346" style="fill: rgb(44, 160, 44);"/><circle id="" cx="252.96919932462677" cy="225" r="5.812098534624664" style="fill: rgb(44, 160, 44);"/><circle id="" cx="504.91492488232734" cy="225" r="3.3987557280984753" style="fill: rgb(44, 160, 44);"/><circle id="" cx="552.9850746268656" cy="225" r="3.111960646981346" style="fill: rgb(44, 160, 44);"/><circle id="" cx="239.34500225537744" cy="225" r="5.812098534624664" style="fill: rgb(44, 160, 44);"/><circle id="" cx="399.62064676616916" cy="225" r="3.940985396556416" style="fill: rgb(44, 160, 44);"/><circle id="" cx="564.6268656716418" cy="225" r="2.8129452387519978" style="fill: rgb(44, 160, 44);"/><circle id="" cx="525.3043815523672" cy="225" r="3.111960646981346" style="fill: rgb(44, 160, 44);"/><circle id="" cx="137.68034825870646" cy="225" r="8.253600303902259" style="fill: rgb(44, 160, 44);"/></g><g id="labels"><g id="" transform="translate(302.60572139303486,225)"><text x="0" y="0" text-anchor="middle" dominant-baseline="text-before-edge" transform="translate(0,0)"/></g><g id="" transform="translate(266.3791458897039,225)"><text x="0" y="0" text-anchor="middle" dominant-baseline="text-before-edge" transform="translate(0,0)"/></g><g id="" transform="translate(81.41169154228855,225)"><text x="0" y="0" text-anchor="middle" dominant-baseline="text-before-edge" transform="translate(0,0)"/></g><g id="" transform="translate(351.113184079602,225)"><text x="0" y="0" text-anchor="middle" dominant-baseline="text-before-edge" transform="translate(0,0)"/></g><g id="" transform="translate(496.1174134261303,225)"><text x="0" y="0" text-anchor="middle" dominant-baseline="text-before-edge" transform="translate(0,0)"/></g><g id="" transform="translate(337.53109452736317,225)"><text x="0" y="0" text-anchor="middle" dominant-baseline="text-before-edge" transform="translate(0,0)"/></g><g id="" transform="translate(533.5282586467627,225)"><text x="0" y="0" text-anchor="middle" dominant-baseline="text-before-edge" transform="translate(0,0)"/></g><g id="" transform="translate(486.9340796019901,225)"><text x="0" y="0" text-anchor="middle" dominant-baseline="text-before-edge" transform="translate(0,0)"/></g><g id="" transform="translate(541.7519369152976,225)"><text x="0" y="0" text-anchor="middle" dominant-baseline="text-before-edge" transform="translate(0,0)"/></g><g id="" transform="translate(252.96919932462677,225)"><text x="0" y="0" text-anchor="middle" dominant-baseline="text-before-edge" transform="translate(0,0)"/></g><g id="" transform="translate(504.91492488232734,225)"><text x="0" y="0" text-anchor="middle" dominant-baseline="text-before-edge" transform="translate(0,0)"/></g><g id="" transform="translate(552.9850746268656,225)"><text x="0" y="0" text-anchor="middle" dominant-baseline="text-before-edge" transform="translate(0,0)"/></g><g id="" transform="translate(239.34500225537744,225)"><text x="0" y="0" text-anchor="middle" dominant-baseline="text-before-edge" transform="translate(0,0)"/></g><g id="" transform="translate(399.62064676616916,225)"><text x="0" y="0" text-anchor="middle" dominant-baseline="text-before-edge" transform="translate(0,0)"/></g><g id="" transform="translate(564.6268656716418,225)"><text x="0" y="0" text-anchor="middle" dominant-baseline="text-before-edge" transform="translate(0,0)"/></g><g id="" transform="translate(525.3043815523672,225)"><text x="0" y="0" text-anchor="middle" dominant-baseline="text-before-edge" transform="translate(0,0)"/></g><g id="" transform="translate(137.68034825870646,225)"><text x="0" y="0" text-anchor="middle" dominant-baseline="text-before-edge" transform="translate(0,0)"/></g></g></g><g id="EU-27"><g id="circles"><circle id="" cx="129.31331884610083" cy="319.5208742175187" r="8.42140478314663" style="fill: rgb(214, 39, 40);"/><circle id="" cx="88.09769879955377" cy="325.7194446005817" r="9.537540218982121" style="fill: rgb(214, 39, 40);"/><circle id="" cx="245.15894500261" cy="315.5470126918325" r="6.021235326705823" style="fill: rgb(214, 39, 40);"/><circle id="" cx="273.5012437810945" cy="315" r="5.3797134553586385" style="fill: rgb(214, 39, 40);"/><circle id="" cx="148.15218096364674" cy="315.8300333479177" r="7.91084822575148" style="fill: rgb(214, 39, 40);"/><circle id="" cx="96.15482268703303" cy="305.59902540090263" r="10.135571035440819" style="fill: rgb(214, 39, 40);"/><circle id="" cx="63.64506040209262" cy="325.23842856238707" r="10.987677860797799" style="fill: rgb(214, 39, 40);"/><circle id="" cx="136.1950455219268" cy="302.1588284737049" r="8.253600303902259" style="fill: rgb(214, 39, 40);"/><circle id="" cx="192.21108081967557" cy="311.24112318598054" r="7.0069963275841864" style="fill: rgb(214, 39, 40);"/><circle id="" cx="181.2102479645114" cy="323.1338321033024" r="7.193653371097845" style="fill: rgb(214, 39, 40);"/><circle id="" cx="220.77324543723788" cy="311.0674538470327" r="6.226058629672196" style="fill: rgb(214, 39, 40);"/><circle id="" cx="218.16273148765453" cy="325.2825642688571" r="6.226058629672196" style="fill: rgb(214, 39, 40);"/><circle id="" cx="176.46087011984594" cy="307.44924674167925" r="7.193653371097845" style="fill: rgb(214, 39, 40);"/><circle id="" cx="206.93209038486577" cy="315.8724169130264" r="6.426824820043557" style="fill: rgb(214, 39, 40);"/><circle id="" cx="73.51947830331348" cy="303.8524322755214" r="10.56789401092382" style="fill: rgb(214, 39, 40);"/><circle id="" cx="108.83940084782964" cy="322.9824410751157" r="9.383830142745873" style="fill: rgb(214, 39, 40);"/><circle id="" cx="36.76390902135082" cy="314.9822350003917" r="13.411673916930921" style="fill: rgb(214, 39, 40);"/><circle id="" cx="231.77757566486093" cy="320.4362674542389" r="6.226058629672196" style="fill: rgb(214, 39, 40);"/><circle id="" cx="117.17088911562328" cy="304.47587988799665" r="8.911649741478126" style="fill: rgb(214, 39, 40);"/><circle id="" cx="165.05181670987812" cy="319.46658855841207" r="7.3772245364527445" style="fill: rgb(214, 39, 40);"/><circle id="" cx="234.38759503897876" cy="306.221785678819" r="6.226058629672196" style="fill: rgb(214, 39, 40);"/><circle id="" cx="329.7699004975124" cy="315" r="4.6904810604403" style="fill: rgb(214, 39, 40);"/><circle id="" cx="196.70086577500928" cy="327.1715020797334" r="6.817092344186451" style="fill: rgb(214, 39, 40);"/><circle id="" cx="160.24929441012736" cy="303.2272760037086" r="7.557857994413109" style="fill: rgb(214, 39, 40);"/><circle id="" cx="209.84349687443515" cy="301.3082107774813" r="6.426824820043557" style="fill: rgb(214, 39, 40);"/><circle id="" cx="153.95600903715018" cy="332.49406110214477" r="7.735690424603077" style="fill: rgb(214, 39, 40);"/></g><g id="labels"><g id="" transform="translate(129.31331884610083,319.5208742175187)"><text x="0" y="0" text-anchor="middle" dominant-baseline="text-before-edge" transform="translate(0,0)"/></g><g id="" transform="translate(88.09769879955377,325.7194446005817)"><text x="0" y="0" text-anchor="middle" dominant-baseline="text-before-edge" transform="translate(0,0)"/></g><g id="" transform="translate(245.15894500261,315.5470126918325)"><text x="0" y="0" text-anchor="middle" dominant-baseline="text-before-edge" transform="translate(0,0)"/></g><g id="" transform="translate(273.5012437810945,315)"><text x="0" y="0" text-anchor="middle" dominant-baseline="text-before-edge" transform="translate(0,0)"/></g><g id="" transform="translate(148.15218096364674,315.8300333479177)"><text x="0" y="0" text-anchor="middle" dominant-baseline="text-before-edge" transform="translate(0,0)"/></g><g id="" transform="translate(96.15482268703303,305.59902540090263)"><text x="0" y="0" text-anchor="middle" dominant-baseline="text-before-edge" transform="translate(0,0)"/></g><g id="" transform="translate(63.64506040209262,325.23842856238707)"><text x="0" y="0" text-anchor="middle" dominant-baseline="text-before-edge" transform="translate(0,0)"/></g><g id="" transform="translate(136.1950455219268,302.1588284737049)"><text x="0" y="0" text-anchor="middle" dominant-baseline="text-before-edge" transform="translate(0,0)"/></g><g id="" transform="translate(192.21108081967557,311.24112318598054)"><text x="0" y="0" text-anchor="middle" dominant-baseline="text-before-edge" transform="translate(0,0)"/></g><g id="" transform="translate(181.2102479645114,323.1338321033024)"><text x="0" y="0" text-anchor="middle" dominant-baseline="text-before-edge" transform="translate(0,0)"/></g><g id="" transform="translate(220.77324543723788,311.0674538470327)"><text x="0" y="0" text-anchor="middle" dominant-baseline="text-before-edge" transform="translate(0,0)"/></g><g id="" transform="translate(218.16273148765453,325.2825642688571)"><text x="0" y="0" text-anchor="middle" dominant-baseline="text-before-edge" transform="translate(0,0)"/></g><g id="" transform="translate(176.46087011984594,307.44924674167925)"><text x="0" y="0" text-anchor="middle" dominant-baseline="text-before-edge" transform="translate(0,0)"/></g><g id="" transform="translate(206.93209038486577,315.8724169130264)"><text x="0" y="0" text-anchor="middle" dominant-baseline="text-before-edge" transform="translate(0,0)"/></g><g id="" transform="translate(73.51947830331348,303.8524322755214)"><text x="0" y="0" text-anchor="middle" dominant-baseline="text-before-edge" transform="translate(0,0)"/></g><g id="" transform="translate(108.83940084782964,322.9824410751157)"><text x="0" y="0" text-anchor="middle" dominant-baseline="text-before-edge" transform="translate(0,0)"/></g><g id="" transform="translate(36.76390902135082,314.9822350003917)"><text x="0" y="0" text-anchor="middle" dominant-baseline="text-before-edge" transform="translate(0,0)"/></g><g id="" transform="translate(231.77757566486093,320.4362674542389)"><text x="0" y="0" text-anchor="middle" dominant-baseline="text-before-edge" transform="translate(0,0)"/></g><g id="" transform="translate(117.17088911562328,304.47587988799665)"><text x="0" y="0" text-anchor="middle" dominant-baseline="text-before-edge" transform="translate(0,0)"/></g><g id="" transform="translate(165.05181670987812,319.46658855841207)"><text x="0" y="0" text-anchor="middle" dominant-baseline="text-before-edge" transform="translate(0,0)"/></g><g id="" transform="translate(234.38759503897876,306.221785678819)"><text x="0" y="0" text-anchor="middle" dominant-baseline="text-before-edge" transform="translate(0,0)"/></g><g id="" transform="translate(329.7699004975124,315)"><text x="0" y="0" text-anchor="middle" dominant-baseline="text-before-edge" transform="translate(0,0)"/></g><g id="" transform="translate(196.70086577500928,327.1715020797334)"><text x="0" y="0" text-anchor="middle" dominant-baseline="text-before-edge" transform="translate(0,0)"/></g><g id="" transform="translate(160.24929441012736,303.2272760037086)"><text x="0" y="0" text-anchor="middle" dominant-baseline="text-before-edge" transform="translate(0,0)"/></g><g id="" transform="translate(209.84349687443515,301.3082107774813)"><text x="0" y="0" text-anchor="middle" dominant-baseline="text-before-edge" transform="translate(0,0)"/></g><g id="" transform="translate(153.95600903715018,332.49406110214477)"><text x="0" y="0" text-anchor="middle" dominant-baseline="text-before-edge" transform="translate(0,0)"/></g></g></g><g id="Middle East/Central Asia"><g id="circles"><circle id="" cx="399.94926854683405" cy="405" r="3.940985396556416" style="fill: rgb(148, 103, 189);"/><circle id="" cx="389.80976619483545" cy="405" r="4.198516955442131" style="fill: rgb(148, 103, 189);"/><circle id="" cx="73.64105227075312" cy="393.4012771672902" r="10.987677860797799" style="fill: rgb(148, 103, 189);"/><circle id="" cx="341.4116915422885" cy="405" r="4.6904810604403" style="fill: rgb(148, 103, 189);"/><circle id="" cx="267.12337722470465" cy="405" r="5.59836368102935" style="fill: rgb(148, 103, 189);"/><circle id="" cx="558.8059701492538" cy="405" r="2.8129452387519978" style="fill: rgb(148, 103, 189);"/><circle id="" cx="199.8256911543574" cy="405" r="6.817092344186451" style="fill: rgb(148, 103, 189);"/><circle id="" cx="184.1915064659845" cy="405" r="6.817092344186451" style="fill: rgb(148, 103, 189);"/><circle id="" cx="68.48755334759207" cy="417.23520447330367" r="11.395954209570522" style="fill: rgb(148, 103, 189);"/><circle id="" cx="646.1194029850747" cy="405" r="2.5" style="fill: rgb(148, 103, 189);"/><circle id="" cx="280.101436100805" cy="405" r="5.3797134553586385" style="fill: rgb(148, 103, 189);"/><circle id="" cx="90.58212351787608" cy="409.1393541639594" r="10.135571035440819" style="fill: rgb(148, 103, 189);"/><circle id="" cx="19.364559326380135" cy="405.00145480253855" r="15" style="fill: rgb(148, 103, 189);"/><circle id="" cx="124.11032990246277" cy="404.99988018716596" r="8.586956546748844" style="fill: rgb(148, 103, 189);"/><circle id="" cx="253.92672440057578" cy="405" r="5.59836368102935" style="fill: rgb(148, 103, 189);"/><circle id="" cx="215.29252709565273" cy="405" r="6.426824820043557" style="fill: rgb(148, 103, 189);"/><circle id="" cx="50.13436316150178" cy="400.3697335937058" r="11.52964761214148" style="fill: rgb(148, 103, 189);"/><circle id="" cx="446.1878109452736" cy="405" r="3.674716540896798" style="fill: rgb(148, 103, 189);"/></g><g id="labels"><g id="" transform="translate(399.94926854683405,405)"><text x="0" y="0" text-anchor="middle" dominant-baseline="text-before-edge" transform="translate(0,0)"/></g><g id="" transform="translate(389.80976619483545,405)"><text x="0" y="0" text-anchor="middle" dominant-baseline="text-before-edge" transform="translate(0,0)"/></g><g id="" transform="translate(73.64105227075312,393.4012771672902)"><text x="0" y="0" text-anchor="middle" dominant-baseline="text-before-edge" transform="translate(0,0)"/></g><g id="" transform="translate(341.4116915422885,405)"><text x="0" y="0" text-anchor="middle" dominant-baseline="text-before-edge" transform="translate(0,0)"/></g><g id="" transform="translate(267.12337722470465,405)"><text x="0" y="0" text-anchor="middle" dominant-baseline="text-before-edge" transform="translate(0,0)"/></g><g id="" transform="translate(558.8059701492538,405)"><text x="0" y="0" text-anchor="middle" dominant-baseline="text-before-edge" transform="translate(0,0)"/></g><g id="" transform="translate(199.8256911543574,405)"><text x="0" y="0" text-anchor="middle" dominant-baseline="text-before-edge" transform="translate(0,0)"/></g><g id="" transform="translate(184.1915064659845,405)"><text x="0" y="0" text-anchor="middle" dominant-baseline="text-before-edge" transform="translate(0,0)"/></g><g id="" transform="translate(68.48755334759207,417.23520447330367)"><text x="0" y="0" text-anchor="middle" dominant-baseline="text-before-edge" transform="translate(0,0)"/></g><g id="" transform="translate(646.1194029850747,405)"><text x="0" y="0" text-anchor="middle" dominant-baseline="text-before-edge" transform="translate(0,0)"/></g><g id="" transform="translate(280.101436100805,405)"><text x="0" y="0" text-anchor="middle" dominant-baseline="text-before-edge" transform="translate(0,0)"/></g><g id="" transform="translate(90.58212351787608,409.1393541639594)"><text x="0" y="0" text-anchor="middle" dominant-baseline="text-before-edge" transform="translate(0,0)"/></g><g id="" transform="translate(19.364559326380135,405.00145480253855)"><text x="0" y="0" text-anchor="middle" dominant-baseline="text-before-edge" transform="translate(0,0)"/></g><g id="" transform="translate(124.11032990246277,404.99988018716596)"><text x="0" y="0" text-anchor="middle" dominant-baseline="text-before-edge" transform="translate(0,0)"/></g><g id="" transform="translate(253.92672440057578,405)"><text x="0" y="0" text-anchor="middle" dominant-baseline="text-before-edge" transform="translate(0,0)"/></g><g id="" transform="translate(215.29252709565273,405)"><text x="0" y="0" text-anchor="middle" dominant-baseline="text-before-edge" transform="translate(0,0)"/></g><g id="" transform="translate(50.13436316150178,400.3697335937058)"><text x="0" y="0" text-anchor="middle" dominant-baseline="text-before-edge" transform="translate(0,0)"/></g><g id="" transform="translate(446.1878109452736,405)"><text x="0" y="0" text-anchor="middle" dominant-baseline="text-before-edge" transform="translate(0,0)"/></g></g></g><g id="North America"><g id="circles"><circle id="" cx="93.66298277415221" cy="495" r="10.281141978132323" style="fill: rgb(140, 86, 75);"/><circle id="" cx="407.3818407960199" cy="495" r="3.940985396556416" style="fill: rgb(140, 86, 75);"/><circle id="" cx="71.10069881788758" cy="495" r="10.281141978132323" style="fill: rgb(140, 86, 75);"/></g><g id="labels"><g id="" transform="translate(93.66298277415221,495)"><text x="0" y="0" text-anchor="middle" dominant-baseline="text-before-edge" transform="translate(0,0)"/></g><g id="" transform="translate(407.3818407960199,495)"><text x="0" y="0" text-anchor="middle" dominant-baseline="text-before-edge" transform="translate(0,0)"/></g><g id="" transform="translate(71.10069881788758,495)"><text x="0" y="0" text-anchor="middle" dominant-baseline="text-before-edge" transform="translate(0,0)"/></g></g></g><g id="Other Europe"><g id="circles"><circle id="" cx="455.8893034825871" cy="585" r="3.674716540896798" style="fill: rgb(227, 119, 194);"/><circle id="" cx="172.60572139303483" cy="585" r="7.193653371097845" style="fill: rgb(227, 119, 194);"/><circle id="" cx="190.05722949676073" cy="584.9999016678572" r="6.817092344186451" style="fill: rgb(227, 119, 194);"/><circle id="" cx="227.58527355474138" cy="590.0967226857686" r="6.226058629672196" style="fill: rgb(227, 119, 194);"/><circle id="" cx="235.0600152364271" cy="577.9668654843442" r="6.021235326705823" style="fill: rgb(227, 119, 194);"/><circle id="" cx="140.40259371793323" cy="585" r="8.253600303902259" style="fill: rgb(227, 119, 194);"/><circle id="" cx="642.2388059701492" cy="585" r="2.5" style="fill: rgb(227, 119, 194);"/><circle id="" cx="318.1281094527363" cy="585" r="4.926199520307989" style="fill: rgb(227, 119, 194);"/><circle id="" cx="121.56203686728212" cy="585" r="8.586956546748844" style="fill: rgb(227, 119, 194);"/><circle id="" cx="213.14281206728714" cy="589.5601080766704" r="6.226058629672196" style="fill: rgb(227, 119, 194);"/><circle id="" cx="220.8280102399574" cy="577.320768947384" r="6.226058629672196" style="fill: rgb(227, 119, 194);"/><circle id="" cx="469.4713930348259" cy="585" r="3.3987557280984753" style="fill: rgb(227, 119, 194);"/><circle id="" cx="242.39887943645556" cy="589.9385927686847" r="6.021235326705823" style="fill: rgb(227, 119, 194);"/></g><g id="labels"><g id="" transform="translate(455.8893034825871,585)"><text x="0" y="0" text-anchor="middle" dominant-baseline="text-before-edge" transform="translate(0,0)"/></g><g id="" transform="translate(172.60572139303483,585)"><text x="0" y="0" text-anchor="middle" dominant-baseline="text-before-edge" transform="translate(0,0)"/></g><g id="" transform="translate(190.05722949676073,584.9999016678572)"><text x="0" y="0" text-anchor="middle" dominant-baseline="text-before-edge" transform="translate(0,0)"/></g><g id="" transform="translate(227.58527355474138,590.0967226857686)"><text x="0" y="0" text-anchor="middle" dominant-baseline="text-before-edge" transform="translate(0,0)"/></g><g id="" transform="translate(235.0600152364271,577.9668654843442)"><text x="0" y="0" text-anchor="middle" dominant-baseline="text-before-edge" transform="translate(0,0)"/></g><g id="" transform="translate(140.40259371793323,585)"><text x="0" y="0" text-anchor="middle" dominant-baseline="text-before-edge" transform="translate(0,0)"/></g><g id="" transform="translate(642.2388059701492,585)"><text x="0" y="0" text-anchor="middle" dominant-baseline="text-before-edge" transform="translate(0,0)"/></g><g id="" transform="translate(318.1281094527363,585)"><text x="0" y="0" text-anchor="middle" dominant-baseline="text-before-edge" transform="translate(0,0)"/></g><g id="" transform="translate(121.56203686728212,585)"><text x="0" y="0" text-anchor="middle" dominant-baseline="text-before-edge" transform="translate(0,0)"/></g><g id="" transform="translate(213.14281206728714,589.5601080766704)"><text x="0" y="0" text-anchor="middle" dominant-baseline="text-before-edge" transform="translate(0,0)"/></g><g id="" transform="translate(220.8280102399574,577.320768947384)"><text x="0" y="0" text-anchor="middle" dominant-baseline="text-before-edge" transform="translate(0,0)"/></g><g id="" transform="translate(469.4713930348259,585)"><text x="0" y="0" text-anchor="middle" dominant-baseline="text-before-edge" transform="translate(0,0)"/></g><g id="" transform="translate(242.39887943645556,589.9385927686847)"><text x="0" y="0" text-anchor="middle" dominant-baseline="text-before-edge" transform="translate(0,0)"/></g></g></g><g id="South America"><g id="circles"><circle id="" cx="270.91370113282784" cy="670.5503424375441" r="5.3797134553586385" style="fill: rgb(127, 127, 127);"/><circle id="" cx="323.9490049751244" cy="675" r="4.6904810604403" style="fill: rgb(127, 127, 127);"/><circle id="" cx="358.8743781094527" cy="675" r="4.448118741714103" style="fill: rgb(127, 127, 127);"/><circle id="" cx="217.2325870646766" cy="675" r="6.226058629672196" style="fill: rgb(127, 127, 127);"/><circle id="" cx="479.1728855721393" cy="675" r="3.3987557280984753" style="fill: rgb(127, 127, 127);"/><circle id="" cx="576.2686567164179" cy="675" r="2.8129452387519978" style="fill: rgb(127, 127, 127);"/><circle id="" cx="630.5970149253732" cy="675" r="2.5" style="fill: rgb(127, 127, 127);"/><circle id="" cx="259.1594547065694" cy="676.0515899899783" r="5.59836368102935" style="fill: rgb(127, 127, 127);"/><circle id="" cx="276.5911185858506" cy="681.9774127317357" r="5.3797134553586385" style="fill: rgb(127, 127, 127);"/><circle id="" cx="417.08333333333337" cy="675" r="3.940985396556416" style="fill: rgb(127, 127, 127);"/><circle id="" cx="283.64834778816095" cy="671.3473378930864" r="5.3797134553586385" style="fill: rgb(127, 127, 127);"/><circle id="" cx="432.6057213930348" cy="675" r="3.674716540896798" style="fill: rgb(127, 127, 127);"/><circle id="" cx="446.1878109452736" cy="675" r="3.674716540896798" style="fill: rgb(127, 127, 127);"/></g><g id="labels"><g id="" transform="translate(270.91370113282784,670.5503424375441)"><text x="0" y="0" text-anchor="middle" dominant-baseline="text-before-edge" transform="translate(0,0)"/></g><g id="" transform="translate(323.9490049751244,675)"><text x="0" y="0" text-anchor="middle" dominant-baseline="text-before-edge" transform="translate(0,0)"/></g><g id="" transform="translate(358.8743781094527,675)"><text x="0" y="0" text-anchor="middle" dominant-baseline="text-before-edge" transform="translate(0,0)"/></g><g id="" transform="translate(217.2325870646766,675)"><text x="0" y="0" text-anchor="middle" dominant-baseline="text-before-edge" transform="translate(0,0)"/></g><g id="" transform="translate(479.1728855721393,675)"><text x="0" y="0" text-anchor="middle" dominant-baseline="text-before-edge" transform="translate(0,0)"/></g><g id="" transform="translate(576.2686567164179,675)"><text x="0" y="0" text-anchor="middle" dominant-baseline="text-before-edge" transform="translate(0,0)"/></g><g id="" transform="translate(630.5970149253732,675)"><text x="0" y="0" text-anchor="middle" dominant-baseline="text-before-edge" transform="translate(0,0)"/></g><g id="" transform="translate(259.1594547065694,676.0515899899783)"><text x="0" y="0" text-anchor="middle" dominant-baseline="text-before-edge" transform="translate(0,0)"/></g><g id="" transform="translate(276.5911185858506,681.9774127317357)"><text x="0" y="0" text-anchor="middle" dominant-baseline="text-before-edge" transform="translate(0,0)"/></g><g id="" transform="translate(417.08333333333337,675)"><text x="0" y="0" text-anchor="middle" dominant-baseline="text-before-edge" transform="translate(0,0)"/></g><g id="" transform="translate(283.64834778816095,671.3473378930864)"><text x="0" y="0" text-anchor="middle" dominant-baseline="text-before-edge" transform="translate(0,0)"/></g><g id="" transform="translate(432.6057213930348,675)"><text x="0" y="0" text-anchor="middle" dominant-baseline="text-before-edge" transform="translate(0,0)"/></g><g id="" transform="translate(446.1878109452736,675)"><text x="0" y="0" text-anchor="middle" dominant-baseline="text-before-edge" transform="translate(0,0)"/></g></g></g></g></g><g id="legend" transform="translate(850,10)"><g transform="translate(5,0)"><g class="legendSize" transform="translate(0,0)"><g class="legendCells" transform="translate(15,16)"><g class="cell" transform="translate(0, 2.5)"><circle class="swatch" r="2.5" fill="none" stroke="#ccc"/><text class="label" transform="translate( 20,&#xA;          5)" font-family="&quot;Arial&quot;, sans-serif" font-size="10px"><tspan x="0" dy="0em">1.0</tspan></text></g><g class="cell" transform="translate(0, 33.5)"><circle class="swatch" r="15" fill="none" stroke="#ccc"/><text class="label" transform="translate( 20,&#xA;          5)" font-family="&quot;Arial&quot;, sans-serif" font-size="10px"><tspan x="0" dy="0em">8.7</tspan></text></g></g><text class="legendTitle" font-family="&quot;Arial&quot;, sans-serif" font-size="12px" font-weight="bold"><tspan x="0" dy="0em">Number of Earths required</tspan></text></g><g class="legendColor" transform="translate(0,97.5)"><g class="legendCells" transform="translate(0,16)"><g class="cell" transform="translate(0, 0)"><rect class="swatch" height="15" width="15" style="fill: rgb(31, 119, 180);"/><text class="label" transform="translate( 20, 12.5)" font-family="&quot;Arial&quot;, sans-serif" font-size="10px"><tspan x="0" dy="0em">Africa</tspan></text></g><g class="cell" transform="translate(0, 21)"><rect class="swatch" height="15" width="15" style="fill: rgb(255, 127, 14);"/><text class="label" transform="translate( 20, 12.5)" font-family="&quot;Arial&quot;, sans-serif" font-size="10px"><tspan x="0" dy="0em">Asia-Pacific</tspan></text></g><g class="cell" transform="translate(0, 42)"><rect class="swatch" height="15" width="15" style="fill: rgb(44, 160, 44);"/><text class="label" transform="translate( 20, 12.5)" font-family="&quot;Arial&quot;, sans-serif" font-size="10px"><tspan x="0" dy="0em">Central America/Caribbean</tspan></text></g><g class="cell" transform="translate(0, 63)"><rect class="swatch" height="15" width="15" style="fill: rgb(214, 39, 40);"/><text class="label" transform="translate( 20, 12.5)" font-family="&quot;Arial&quot;, sans-serif" font-size="10px"><tspan x="0" dy="0em">EU-27</tspan></text></g><g class="cell" transform="translate(0, 84)"><rect class="swatch" height="15" width="15" style="fill: rgb(148, 103, 189);"/><text class="label" transform="translate( 20, 12.5)" font-family="&quot;Arial&quot;, sans-serif" font-size="10px"><tspan x="0" dy="0em">Middle East/Central Asia</tspan></text></g><g class="cell" transform="translate(0, 105)"><rect class="swatch" height="15" width="15" style="fill: rgb(140, 86, 75);"/><text class="label" transform="translate( 20, 12.5)" font-family="&quot;Arial&quot;, sans-serif" font-size="10px"><tspan x="0" dy="0em">North America</tspan></text></g><g class="cell" transform="translate(0, 126)"><rect class="swatch" height="15" width="15" style="fill: rgb(227, 119, 194);"/><text class="label" transform="translate( 20, 12.5)" font-family="&quot;Arial&quot;, sans-serif" font-size="10px"><tspan x="0" dy="0em">Other Europe</tspan></text></g><g class="cell" transform="translate(0, 147)"><rect class="swatch" height="15" width="15" style="fill: rgb(127, 127, 127);"/><text class="label" transform="translate( 20, 12.5)" font-family="&quot;Arial&quot;, sans-serif" font-size="10px"><tspan x="0" dy="0em">South America</tspan></text></g></g><text class="legendTitle" font-family="&quot;Arial&quot;, sans-serif" font-size="12px" font-weight="bold"><tspan x="0" dy="0em">Region</tspan></text></g></g></g></svg>