<svg xmlns="http://www.w3.org/2000/svg" width="1800" height="600"><rect width="1800" height="600" x="0" y="0" fill="#FFFFFF" id="background"/><g id="series"><g transform="translate(0,0)"><g transform="translate(50,50)" clip-path="url(#serieClipPath)"><g id="axis"><g transform="translate(0,500)" fill="none" font-size="10" font-family="sans-serif" text-anchor="middle"><path class="domain" stroke="currentColor" d="M0.5,6V0.5H1500.5V6"/><g class="tick" opacity="1" transform="translate(0.5,0)"><line stroke="currentColor" y2="6"/><text fill="currentColor" y="9" dy="0.71em">−20</text></g><g class="tick" opacity="1" transform="translate(136.5,0)"><line stroke="currentColor" y2="6"/><text fill="currentColor" y="9" dy="0.71em">−10</text></g><g class="tick" opacity="1" transform="translate(273.5,0)"><line stroke="currentColor" y2="6"/><text fill="currentColor" y="9" dy="0.71em">0</text></g><g class="tick" opacity="1" transform="translate(409.5,0)"><line stroke="currentColor" y2="6"/><text fill="currentColor" y="9" dy="0.71em">10</text></g><g class="tick" opacity="1" transform="translate(545.5,0)"><line stroke="currentColor" y2="6"/><text fill="currentColor" y="9" dy="0.71em">20</text></g><g class="tick" opacity="1" transform="translate(682.5,0)"><line stroke="currentColor" y2="6"/><text fill="currentColor" y="9" dy="0.71em">30</text></g><g class="tick" opacity="1" transform="translate(818.5,0)"><line stroke="currentColor" y2="6"/><text fill="currentColor" y="9" dy="0.71em">40</text></g><g class="tick" opacity="1" transform="translate(955.5,0)"><line stroke="currentColor" y2="6"/><text fill="currentColor" y="9" dy="0.71em">50</text></g><g class="tick" opacity="1" transform="translate(1091.5,0)"><line stroke="currentColor" y2="6"/><text fill="currentColor" y="9" dy="0.71em">60</text></g><g class="tick" opacity="1" transform="translate(1227.5,0)"><line stroke="currentColor" y2="6"/><text fill="currentColor" y="9" dy="0.71em">70</text></g><g class="tick" opacity="1" transform="translate(1364.5,0)"><line stroke="currentColor" y2="6"/><text fill="currentColor" y="9" dy="0.71em">80</text></g><g class="tick" opacity="1" transform="translate(1500.5,0)"><line stroke="currentColor" y2="6"/><text fill="currentColor" y="9" dy="0.71em">90</text></g><text x="1500" dy="-5" text-anchor="end" style="font-family: Arial, sans-serif; font-size: 12px; fill: rgb(123, 123, 123); font-weight: bold;">Ecological Deficit or Reserve</text></g><g fill="none" font-size="10" font-family="sans-serif" text-anchor="end"><path class="domain" stroke="currentColor" d="M-6,500.5H0.5V0.5H-6"/><g class="tick" opacity="1" transform="translate(0,500.5)"><line stroke="currentColor" x2="-6"/><text fill="currentColor" x="-9" dy="0.32em">0</text></g><g class="tick" opacity="1" transform="translate(0,444.5)"><line stroke="currentColor" x2="-6"/><text fill="currentColor" x="-9" dy="0.32em">1</text></g><g class="tick" opacity="1" transform="translate(0,389.5)"><line stroke="currentColor" x2="-6"/><text fill="currentColor" x="-9" dy="0.32em">2</text></g><g class="tick" opacity="1" transform="translate(0,333.5)"><line stroke="currentColor" x2="-6"/><text fill="currentColor" x="-9" dy="0.32em">3</text></g><g class="tick" opacity="1" transform="translate(0,278.5)"><line stroke="currentColor" x2="-6"/><text fill="currentColor" x="-9" dy="0.32em">4</text></g><g class="tick" opacity="1" transform="translate(0,222.5)"><line stroke="currentColor" x2="-6"/><text fill="currentColor" x="-9" dy="0.32em">5</text></g><g class="tick" opacity="1" transform="translate(0,167.5)"><line stroke="currentColor" x2="-6"/><text fill="currentColor" x="-9" dy="0.32em">6</text></g><g class="tick" opacity="1" transform="translate(0,111.5)"><line stroke="currentColor" x2="-6"/><text fill="currentColor" x="-9" dy="0.32em">7</text></g><g class="tick" opacity="1" transform="translate(0,56.5)"><line stroke="currentColor" x2="-6"/><text fill="currentColor" x="-9" dy="0.32em">8</text></g><g class="tick" opacity="1" transform="translate(0,0.5)"><line stroke="currentColor" x2="-6"/><text fill="currentColor" x="-9" dy="0.32em">9</text></g><text x="4" text-anchor="start" dominant-baseline="hanging" style="font-family: Arial, sans-serif; font-size: 12px; fill: rgb(123, 123, 123); font-weight: bold;">Number of Earths required</text></g></g><g id="viz"><g><circle cx="1420" cy="444" fill="#c9db74" r="38" stroke="white"/></g><g><circle cx="1250" cy="383" fill="#c9db74" r="35" stroke="white"/></g><g><circle cx="1189" cy="378" fill="#c9db74" r="34" stroke="white"/></g><g><circle cx="476" cy="422" fill="#66c5cc" r="17" stroke="white"/></g><g><circle cx="352" cy="217" fill="#f6cf71" r="15" stroke="white"/></g><g><circle cx="365" cy="228" fill="#9eb9f3" r="15" stroke="white"/></g><g><circle cx="416" cy="400" fill="#c9db74" r="15" stroke="white"/></g><g><circle cx="360" cy="300" fill="#dcb0f2" r="14" stroke="white"/></g><g><circle cx="344" cy="289" fill="#f6cf71" r="13" stroke="white"/></g><g><circle cx="296" cy="200" fill="#dcb0f2" r="13" stroke="white"/></g><g><circle cx="303" cy="217" fill="#dcb0f2" r="13" stroke="white"/></g><g><circle cx="361" cy="383" fill="#c9db74" r="13" stroke="white"/></g><g><circle cx="374" cy="422" fill="#c9db74" r="13" stroke="white"/></g><g><circle cx="314" cy="300" fill="#f6cf71" r="12" stroke="white"/></g><g><circle cx="322" cy="317" fill="#dcb0f2" r="12" stroke="white"/></g><g><circle cx="349" cy="406" fill="#c9db74" r="12" stroke="white"/></g><g><circle cx="299" cy="289" fill="#fe88b1" r="11" stroke="white"/></g><g><circle cx="323" cy="411" fill="#66c5cc" r="10" stroke="white"/></g><g><circle cx="266" cy="261" fill="#dcb0f2" r="10" stroke="white"/></g><g><circle cx="290" cy="300" fill="#fe88b1" r="10" stroke="white"/></g><g><circle cx="275" cy="328" fill="#f6cf71" r="9" stroke="white"/></g><g><circle cx="300" cy="383" fill="#c9db74" r="9" stroke="white"/></g><g><circle cx="292" cy="417" fill="#66c5cc" r="8" stroke="white"/></g><g><circle cx="230" cy="233" fill="#dcb0f2" r="8" stroke="white"/></g><g><circle cx="266" cy="344" fill="#87c55f" r="8" stroke="white"/></g><g><circle cx="222" cy="228" fill="#9eb9f3" r="8" stroke="white"/></g><g><circle cx="260" cy="333" fill="#fe88b1" r="8" stroke="white"/></g><g><circle cx="295" cy="428" fill="#c9db74" r="8" stroke="white"/></g><g><circle cx="290" cy="417" fill="#c9db74" r="8" stroke="white"/></g><g><circle cx="282" cy="417" fill="#66c5cc" r="7" stroke="white"/></g><g><circle cx="284" cy="433" fill="#66c5cc" r="7" stroke="white"/></g><g><circle cx="200" cy="211" fill="#f6cf71" r="7" stroke="white"/></g><g><circle cx="271" cy="394" fill="#f6cf71" r="7" stroke="white"/></g><g><circle cx="296" cy="439" fill="#f6cf71" r="7" stroke="white"/></g><g><circle cx="215" cy="222" fill="#f89c74" r="7" stroke="white"/></g><g><circle cx="277" cy="417" fill="#f89c74" r="7" stroke="white"/></g><g><circle cx="236" cy="294" fill="#dcb0f2" r="7" stroke="white"/></g><g><circle cx="266" cy="367" fill="#dcb0f2" r="7" stroke="white"/></g><g><circle cx="256" cy="361" fill="#dcb0f2" r="7" stroke="white"/></g><g><circle cx="254" cy="333" fill="#dcb0f2" r="7" stroke="white"/></g><g><circle cx="252" cy="344" fill="#dcb0f2" r="7" stroke="white"/></g><g><circle cx="258" cy="361" fill="#fe88b1" r="7" stroke="white"/></g><g><circle cx="262" cy="367" fill="#fe88b1" r="7" stroke="white"/></g><g><circle cx="288" cy="428" fill="#fe88b1" r="7" stroke="white"/></g><g><circle cx="265" cy="361" fill="#c9db74" r="7" stroke="white"/></g><g><circle cx="284" cy="422" fill="#c9db74" r="7" stroke="white"/></g><g><circle cx="243" cy="344" fill="#f6cf71" r="6" stroke="white"/></g><g><circle cx="237" cy="311" fill="#dcb0f2" r="6" stroke="white"/></g><g><circle cx="247" cy="339" fill="#dcb0f2" r="6" stroke="white"/></g><g><circle cx="237" cy="328" fill="#dcb0f2" r="6" stroke="white"/></g><g><circle cx="269" cy="400" fill="#dcb0f2" r="6" stroke="white"/></g><g><circle cx="241" cy="322" fill="#dcb0f2" r="6" stroke="white"/></g><g><circle cx="250" cy="356" fill="#87c55f" r="6" stroke="white"/></g><g><circle cx="244" cy="344" fill="#fe88b1" r="6" stroke="white"/></g><g><circle cx="248" cy="361" fill="#fe88b1" r="6" stroke="white"/></g><g><circle cx="275" cy="439" fill="#c9db74" r="6" stroke="white"/></g><g><circle cx="252" cy="394" fill="#66c5cc" r="5" stroke="white"/></g><g><circle cx="275" cy="444" fill="#66c5cc" r="5" stroke="white"/></g><g><circle cx="247" cy="383" fill="#66c5cc" r="5" stroke="white"/></g><g><circle cx="274" cy="439" fill="#66c5cc" r="5" stroke="white"/></g><g><circle cx="270" cy="433" fill="#f6cf71" r="5" stroke="white"/></g><g><circle cx="262" cy="411" fill="#f6cf71" r="5" stroke="white"/></g><g><circle cx="248" cy="389" fill="#f6cf71" r="5" stroke="white"/></g><g><circle cx="273" cy="433" fill="#f6cf71" r="5" stroke="white"/></g><g><circle cx="259" cy="406" fill="#f89c74" r="5" stroke="white"/></g><g><circle cx="270" cy="433" fill="#f89c74" r="5" stroke="white"/></g><g><circle cx="218" cy="300" fill="#f89c74" r="5" stroke="white"/></g><g><circle cx="233" cy="333" fill="#dcb0f2" r="5" stroke="white"/></g><g><circle cx="243" cy="361" fill="#dcb0f2" r="5" stroke="white"/></g><g><circle cx="243" cy="361" fill="#dcb0f2" r="5" stroke="white"/></g><g><circle cx="243" cy="356" fill="#dcb0f2" r="5" stroke="white"/></g><g><circle cx="255" cy="400" fill="#87c55f" r="5" stroke="white"/></g><g><circle cx="269" cy="444" fill="#87c55f" r="5" stroke="white"/></g><g><circle cx="198" cy="233" fill="#87c55f" r="5" stroke="white"/></g><g><circle cx="247" cy="378" fill="#87c55f" r="5" stroke="white"/></g><g><circle cx="255" cy="394" fill="#fe88b1" r="5" stroke="white"/></g><g><circle cx="262" cy="433" fill="#66c5cc" r="4" stroke="white"/></g><g><circle cx="235" cy="367" fill="#f6cf71" r="4" stroke="white"/></g><g><circle cx="237" cy="361" fill="#f6cf71" r="4" stroke="white"/></g><g><circle cx="266" cy="439" fill="#f6cf71" r="4" stroke="white"/></g><g><circle cx="256" cy="411" fill="#f6cf71" r="4" stroke="white"/></g><g><circle cx="251" cy="411" fill="#f6cf71" r="4" stroke="white"/></g><g><circle cx="245" cy="394" fill="#f89c74" r="4" stroke="white"/></g><g><circle cx="262" cy="428" fill="#f89c74" r="4" stroke="white"/></g><g><circle cx="250" cy="400" fill="#f89c74" r="4" stroke="white"/></g><g><circle cx="260" cy="428" fill="#f89c74" r="4" stroke="white"/></g><g><circle cx="263" cy="433" fill="#f89c74" r="4" stroke="white"/></g><g><circle cx="198" cy="256" fill="#dcb0f2" r="4" stroke="white"/></g><g><circle cx="232" cy="356" fill="#dcb0f2" r="4" stroke="white"/></g><g><circle cx="140" cy="94" fill="#dcb0f2" r="4" stroke="white"/></g><g><circle cx="206" cy="278" fill="#dcb0f2" r="4" stroke="white"/></g><g><circle cx="252" cy="417" fill="#87c55f" r="4" stroke="white"/></g><g><circle cx="254" cy="411" fill="#87c55f" r="4" stroke="white"/></g><g><circle cx="239" cy="378" fill="#87c55f" r="4" stroke="white"/></g><g><circle cx="168" cy="183" fill="#87c55f" r="4" stroke="white"/></g><g><circle cx="108" cy="17" fill="#87c55f" r="4" stroke="white"/></g><g><circle cx="258" cy="417" fill="#9eb9f3" r="4" stroke="white"/></g><g><circle cx="260" cy="422" fill="#fe88b1" r="4" stroke="white"/></g><g><circle cx="266" cy="444" fill="#fe88b1" r="4" stroke="white"/></g><g><circle cx="237" cy="361" fill="#fe88b1" r="4" stroke="white"/></g><g><circle cx="239" cy="367" fill="#fe88b1" r="4" stroke="white"/></g><g><circle cx="251" cy="417" fill="#66c5cc" r="3" stroke="white"/></g><g><circle cx="248" cy="411" fill="#66c5cc" r="3" stroke="white"/></g><g><circle cx="247" cy="406" fill="#66c5cc" r="3" stroke="white"/></g><g><circle cx="259" cy="444" fill="#66c5cc" r="3" stroke="white"/></g><g><circle cx="226" cy="350" fill="#f6cf71" r="3" stroke="white"/></g><g><circle cx="202" cy="283" fill="#f6cf71" r="3" stroke="white"/></g><g><circle cx="258" cy="433" fill="#f89c74" r="3" stroke="white"/></g><g><circle cx="255" cy="428" fill="#f89c74" r="3" stroke="white"/></g><g><circle cx="233" cy="372" fill="#f89c74" r="3" stroke="white"/></g><g><circle cx="256" cy="433" fill="#f89c74" r="3" stroke="white"/></g><g><circle cx="232" cy="372" fill="#f89c74" r="3" stroke="white"/></g><g><circle cx="255" cy="439" fill="#f89c74" r="3" stroke="white"/></g><g><circle cx="235" cy="383" fill="#dcb0f2" r="3" stroke="white"/></g><g><circle cx="228" cy="361" fill="#dcb0f2" r="3" stroke="white"/></g><g><circle cx="169" cy="200" fill="#87c55f" r="3" stroke="white"/></g><g><circle cx="205" cy="289" fill="#87c55f" r="3" stroke="white"/></g><g><circle cx="161" cy="178" fill="#87c55f" r="3" stroke="white"/></g><g><circle cx="254" cy="422" fill="#87c55f" r="3" stroke="white"/></g><g><circle cx="250" cy="428" fill="#66c5cc" r="2" stroke="white"/></g><g><circle cx="230" cy="378" fill="#f89c74" r="2" stroke="white"/></g><g><circle cx="254" cy="439" fill="#87c55f" r="2" stroke="white"/></g><g><circle cx="220" cy="344" fill="#87c55f" r="2" stroke="white"/></g><g><circle cx="235" cy="383" fill="#87c55f" r="2" stroke="white"/></g><g><circle cx="226" cy="372" fill="#66c5cc" r="1" stroke="white"/></g><g><circle cx="196" cy="289" fill="#f6cf71" r="1" stroke="white"/></g><g id="labels"><g transform="translate(1420,444)"><text x="0" y="0" text-anchor="middle" dominant-baseline="text-before-edge" transform="translate(0,0)"/></g><g transform="translate(1250,383)"><text x="0" y="0" text-anchor="middle" dominant-baseline="text-before-edge" transform="translate(0,0)"/></g><g transform="translate(1189,378)"><text x="0" y="0" text-anchor="middle" dominant-baseline="text-before-edge" transform="translate(0,0)"/></g><g transform="translate(476,422)"><text x="0" y="0" text-anchor="middle" dominant-baseline="text-before-edge" transform="translate(0,0)"/></g><g transform="translate(352,217)"><text x="0" y="0" text-anchor="middle" dominant-baseline="text-before-edge" transform="translate(0,0)"/></g><g transform="translate(365,228)"><text x="0" y="0" text-anchor="middle" dominant-baseline="text-before-edge" transform="translate(0,0)"/></g><g transform="translate(416,400)"><text x="0" y="0" text-anchor="middle" dominant-baseline="text-before-edge" transform="translate(0,0)"/></g><g transform="translate(360,300)"><text x="0" y="0" text-anchor="middle" dominant-baseline="text-before-edge" transform="translate(0,0)"/></g><g transform="translate(344,289)"><text x="0" y="0" text-anchor="middle" dominant-baseline="text-before-edge" transform="translate(0,0)"/></g><g transform="translate(296,200)"><text x="0" y="0" text-anchor="middle" dominant-baseline="text-before-edge" transform="translate(0,0)"/></g><g transform="translate(303,217)"><text x="0" y="0" text-anchor="middle" dominant-baseline="text-before-edge" transform="translate(0,0)"/></g><g transform="translate(361,383)"><text x="0" y="0" text-anchor="middle" dominant-baseline="text-before-edge" transform="translate(0,0)"/></g><g transform="translate(374,422)"><text x="0" y="0" text-anchor="middle" dominant-baseline="text-before-edge" transform="translate(0,0)"/></g><g transform="translate(314,300)"><text x="0" y="0" text-anchor="middle" dominant-baseline="text-before-edge" transform="translate(0,0)"/></g><g transform="translate(322,317)"><text x="0" y="0" text-anchor="middle" dominant-baseline="text-before-edge" transform="translate(0,0)"/></g><g transform="translate(349,406)"><text x="0" y="0" text-anchor="middle" dominant-baseline="text-before-edge" transform="translate(0,0)"/></g><g transform="translate(299,289)"><text x="0" y="0" text-anchor="middle" dominant-baseline="text-before-edge" transform="translate(0,0)"/></g><g transform="translate(323,411)"><text x="0" y="0" text-anchor="middle" dominant-baseline="text-before-edge" transform="translate(0,0)"/></g><g transform="translate(266,261)"><text x="0" y="0" text-anchor="middle" dominant-baseline="text-before-edge" transform="translate(0,0)"/></g><g transform="translate(290,300)"><text x="0" y="0" text-anchor="middle" dominant-baseline="text-before-edge" transform="translate(0,0)"/></g><g transform="translate(275,328)"><text x="0" y="0" text-anchor="middle" dominant-baseline="text-before-edge" transform="translate(0,0)"/></g><g transform="translate(300,383)"><text x="0" y="0" text-anchor="middle" dominant-baseline="text-before-edge" transform="translate(0,0)"/></g><g transform="translate(292,417)"><text x="0" y="0" text-anchor="middle" dominant-baseline="text-before-edge" transform="translate(0,0)"/></g><g transform="translate(230,233)"><text x="0" y="0" text-anchor="middle" dominant-baseline="text-before-edge" transform="translate(0,0)"/></g><g transform="translate(266,344)"><text x="0" y="0" text-anchor="middle" dominant-baseline="text-before-edge" transform="translate(0,0)"/></g><g transform="translate(222,228)"><text x="0" y="0" text-anchor="middle" dominant-baseline="text-before-edge" transform="translate(0,0)"/></g><g transform="translate(260,333)"><text x="0" y="0" text-anchor="middle" dominant-baseline="text-before-edge" transform="translate(0,0)"/></g><g transform="translate(295,428)"><text x="0" y="0" text-anchor="middle" dominant-baseline="text-before-edge" transform="translate(0,0)"/></g><g transform="translate(290,417)"><text x="0" y="0" text-anchor="middle" dominant-baseline="text-before-edge" transform="translate(0,0)"/></g><g transform="translate(282,417)"><text x="0" y="0" text-anchor="middle" dominant-baseline="text-before-edge" transform="translate(0,0)"/></g><g transform="translate(284,433)"><text x="0" y="0" text-anchor="middle" dominant-baseline="text-before-edge" transform="translate(0,0)"/></g><g transform="translate(200,211)"><text x="0" y="0" text-anchor="middle" dominant-baseline="text-before-edge" transform="translate(0,0)"/></g><g transform="translate(271,394)"><text x="0" y="0" text-anchor="middle" dominant-baseline="text-before-edge" transform="translate(0,0)"/></g><g transform="translate(296,439)"><text x="0" y="0" text-anchor="middle" dominant-baseline="text-before-edge" transform="translate(0,0)"/></g><g transform="translate(215,222)"><text x="0" y="0" text-anchor="middle" dominant-baseline="text-before-edge" transform="translate(0,0)"/></g><g transform="translate(277,417)"><text x="0" y="0" text-anchor="middle" dominant-baseline="text-before-edge" transform="translate(0,0)"/></g><g transform="translate(236,294)"><text x="0" y="0" text-anchor="middle" dominant-baseline="text-before-edge" transform="translate(0,0)"/></g><g transform="translate(266,367)"><text x="0" y="0" text-anchor="middle" dominant-baseline="text-before-edge" transform="translate(0,0)"/></g><g transform="translate(256,361)"><text x="0" y="0" text-anchor="middle" dominant-baseline="text-before-edge" transform="translate(0,0)"/></g><g transform="translate(254,333)"><text x="0" y="0" text-anchor="middle" dominant-baseline="text-before-edge" transform="translate(0,0)"/></g><g transform="translate(252,344)"><text x="0" y="0" text-anchor="middle" dominant-baseline="text-before-edge" transform="translate(0,0)"/></g><g transform="translate(258,361)"><text x="0" y="0" text-anchor="middle" dominant-baseline="text-before-edge" transform="translate(0,0)"/></g><g transform="translate(262,367)"><text x="0" y="0" text-anchor="middle" dominant-baseline="text-before-edge" transform="translate(0,0)"/></g><g transform="translate(288,428)"><text x="0" y="0" text-anchor="middle" dominant-baseline="text-before-edge" transform="translate(0,0)"/></g><g transform="translate(265,361)"><text x="0" y="0" text-anchor="middle" dominant-baseline="text-before-edge" transform="translate(0,0)"/></g><g transform="translate(284,422)"><text x="0" y="0" text-anchor="middle" dominant-baseline="text-before-edge" transform="translate(0,0)"/></g><g transform="translate(243,344)"><text x="0" y="0" text-anchor="middle" dominant-baseline="text-before-edge" transform="translate(0,0)"/></g><g transform="translate(237,311)"><text x="0" y="0" text-anchor="middle" dominant-baseline="text-before-edge" transform="translate(0,0)"/></g><g transform="translate(247,339)"><text x="0" y="0" text-anchor="middle" dominant-baseline="text-before-edge" transform="translate(0,0)"/></g><g transform="translate(237,328)"><text x="0" y="0" text-anchor="middle" dominant-baseline="text-before-edge" transform="translate(0,0)"/></g><g transform="translate(269,400)"><text x="0" y="0" text-anchor="middle" dominant-baseline="text-before-edge" transform="translate(0,0)"/></g><g transform="translate(241,322)"><text x="0" y="0" text-anchor="middle" dominant-baseline="text-before-edge" transform="translate(0,0)"/></g><g transform="translate(250,356)"><text x="0" y="0" text-anchor="middle" dominant-baseline="text-before-edge" transform="translate(0,0)"/></g><g transform="translate(244,344)"><text x="0" y="0" text-anchor="middle" dominant-baseline="text-before-edge" transform="translate(0,0)"/></g><g transform="translate(248,361)"><text x="0" y="0" text-anchor="middle" dominant-baseline="text-before-edge" transform="translate(0,0)"/></g><g transform="translate(275,439)"><text x="0" y="0" text-anchor="middle" dominant-baseline="text-before-edge" transform="translate(0,0)"/></g><g transform="translate(252,394)"><text x="0" y="0" text-anchor="middle" dominant-baseline="text-before-edge" transform="translate(0,0)"/></g><g transform="translate(275,444)"><text x="0" y="0" text-anchor="middle" dominant-baseline="text-before-edge" transform="translate(0,0)"/></g><g transform="translate(247,383)"><text x="0" y="0" text-anchor="middle" dominant-baseline="text-before-edge" transform="translate(0,0)"/></g><g transform="translate(274,439)"><text x="0" y="0" text-anchor="middle" dominant-baseline="text-before-edge" transform="translate(0,0)"/></g><g transform="translate(270,433)"><text x="0" y="0" text-anchor="middle" dominant-baseline="text-before-edge" transform="translate(0,0)"/></g><g transform="translate(262,411)"><text x="0" y="0" text-anchor="middle" dominant-baseline="text-before-edge" transform="translate(0,0)"/></g><g transform="translate(248,389)"><text x="0" y="0" text-anchor="middle" dominant-baseline="text-before-edge" transform="translate(0,0)"/></g><g transform="translate(273,433)"><text x="0" y="0" text-anchor="middle" dominant-baseline="text-before-edge" transform="translate(0,0)"/></g><g transform="translate(259,406)"><text x="0" y="0" text-anchor="middle" dominant-baseline="text-before-edge" transform="translate(0,0)"/></g><g transform="translate(270,433)"><text x="0" y="0" text-anchor="middle" dominant-baseline="text-before-edge" transform="translate(0,0)"/></g><g transform="translate(218,300)"><text x="0" y="0" text-anchor="middle" dominant-baseline="text-before-edge" transform="translate(0,0)"/></g><g transform="translate(233,333)"><text x="0" y="0" text-anchor="middle" dominant-baseline="text-before-edge" transform="translate(0,0)"/></g><g transform="translate(243,361)"><text x="0" y="0" text-anchor="middle" dominant-baseline="text-before-edge" transform="translate(0,0)"/></g><g transform="translate(243,361)"><text x="0" y="0" text-anchor="middle" dominant-baseline="text-before-edge" transform="translate(0,0)"/></g><g transform="translate(243,356)"><text x="0" y="0" text-anchor="middle" dominant-baseline="text-before-edge" transform="translate(0,0)"/></g><g transform="translate(255,400)"><text x="0" y="0" text-anchor="middle" dominant-baseline="text-before-edge" transform="translate(0,0)"/></g><g transform="translate(269,444)"><text x="0" y="0" text-anchor="middle" dominant-baseline="text-before-edge" transform="translate(0,0)"/></g><g transform="translate(198,233)"><text x="0" y="0" text-anchor="middle" dominant-baseline="text-before-edge" transform="translate(0,0)"/></g><g transform="translate(247,378)"><text x="0" y="0" text-anchor="middle" dominant-baseline="text-before-edge" transform="translate(0,0)"/></g><g transform="translate(255,394)"><text x="0" y="0" text-anchor="middle" dominant-baseline="text-before-edge" transform="translate(0,0)"/></g><g transform="translate(262,433)"><text x="0" y="0" text-anchor="middle" dominant-baseline="text-before-edge" transform="translate(0,0)"/></g><g transform="translate(235,367)"><text x="0" y="0" text-anchor="middle" dominant-baseline="text-before-edge" transform="translate(0,0)"/></g><g transform="translate(237,361)"><text x="0" y="0" text-anchor="middle" dominant-baseline="text-before-edge" transform="translate(0,0)"/></g><g transform="translate(266,439)"><text x="0" y="0" text-anchor="middle" dominant-baseline="text-before-edge" transform="translate(0,0)"/></g><g transform="translate(256,411)"><text x="0" y="0" text-anchor="middle" dominant-baseline="text-before-edge" transform="translate(0,0)"/></g><g transform="translate(251,411)"><text x="0" y="0" text-anchor="middle" dominant-baseline="text-before-edge" transform="translate(0,0)"/></g><g transform="translate(245,394)"><text x="0" y="0" text-anchor="middle" dominant-baseline="text-before-edge" transform="translate(0,0)"/></g><g transform="translate(262,428)"><text x="0" y="0" text-anchor="middle" dominant-baseline="text-before-edge" transform="translate(0,0)"/></g><g transform="translate(250,400)"><text x="0" y="0" text-anchor="middle" dominant-baseline="text-before-edge" transform="translate(0,0)"/></g><g transform="translate(260,428)"><text x="0" y="0" text-anchor="middle" dominant-baseline="text-before-edge" transform="translate(0,0)"/></g><g transform="translate(263,433)"><text x="0" y="0" text-anchor="middle" dominant-baseline="text-before-edge" transform="translate(0,0)"/></g><g transform="translate(198,256)"><text x="0" y="0" text-anchor="middle" dominant-baseline="text-before-edge" transform="translate(0,0)"/></g><g transform="translate(232,356)"><text x="0" y="0" text-anchor="middle" dominant-baseline="text-before-edge" transform="translate(0,0)"/></g><g transform="translate(140,94)"><text x="0" y="0" text-anchor="middle" dominant-baseline="text-before-edge" transform="translate(0,0)"/></g><g transform="translate(206,278)"><text x="0" y="0" text-anchor="middle" dominant-baseline="text-before-edge" transform="translate(0,0)"/></g><g transform="translate(252,417)"><text x="0" y="0" text-anchor="middle" dominant-baseline="text-before-edge" transform="translate(0,0)"/></g><g transform="translate(254,411)"><text x="0" y="0" text-anchor="middle" dominant-baseline="text-before-edge" transform="translate(0,0)"/></g><g transform="translate(239,378)"><text x="0" y="0" text-anchor="middle" dominant-baseline="text-before-edge" transform="translate(0,0)"/></g><g transform="translate(168,183)"><text x="0" y="0" text-anchor="middle" dominant-baseline="text-before-edge" transform="translate(0,0)"/></g><g transform="translate(108,17)"><text x="0" y="0" text-anchor="middle" dominant-baseline="text-before-edge" transform="translate(0,0)"/></g><g transform="translate(258,417)"><text x="0" y="0" text-anchor="middle" dominant-baseline="text-before-edge" transform="translate(0,0)"/></g><g transform="translate(260,422)"><text x="0" y="0" text-anchor="middle" dominant-baseline="text-before-edge" transform="translate(0,0)"/></g><g transform="translate(266,444)"><text x="0" y="0" text-anchor="middle" dominant-baseline="text-before-edge" transform="translate(0,0)"/></g><g transform="translate(237,361)"><text x="0" y="0" text-anchor="middle" dominant-baseline="text-before-edge" transform="translate(0,0)"/></g><g transform="translate(239,367)"><text x="0" y="0" text-anchor="middle" dominant-baseline="text-before-edge" transform="translate(0,0)"/></g><g transform="translate(251,417)"><text x="0" y="0" text-anchor="middle" dominant-baseline="text-before-edge" transform="translate(0,0)"/></g><g transform="translate(248,411)"><text x="0" y="0" text-anchor="middle" dominant-baseline="text-before-edge" transform="translate(0,0)"/></g><g transform="translate(247,406)"><text x="0" y="0" text-anchor="middle" dominant-baseline="text-before-edge" transform="translate(0,0)"/></g><g transform="translate(259,444)"><text x="0" y="0" text-anchor="middle" dominant-baseline="text-before-edge" transform="translate(0,0)"/></g><g transform="translate(226,350)"><text x="0" y="0" text-anchor="middle" dominant-baseline="text-before-edge" transform="translate(0,0)"/></g><g transform="translate(202,283)"><text x="0" y="0" text-anchor="middle" dominant-baseline="text-before-edge" transform="translate(0,0)"/></g><g transform="translate(258,433)"><text x="0" y="0" text-anchor="middle" dominant-baseline="text-before-edge" transform="translate(0,0)"/></g><g transform="translate(255,428)"><text x="0" y="0" text-anchor="middle" dominant-baseline="text-before-edge" transform="translate(0,0)"/></g><g transform="translate(233,372)"><text x="0" y="0" text-anchor="middle" dominant-baseline="text-before-edge" transform="translate(0,0)"/></g><g transform="translate(256,433)"><text x="0" y="0" text-anchor="middle" dominant-baseline="text-before-edge" transform="translate(0,0)"/></g><g transform="translate(232,372)"><text x="0" y="0" text-anchor="middle" dominant-baseline="text-before-edge" transform="translate(0,0)"/></g><g transform="translate(255,439)"><text x="0" y="0" text-anchor="middle" dominant-baseline="text-before-edge" transform="translate(0,0)"/></g><g transform="translate(235,383)"><text x="0" y="0" text-anchor="middle" dominant-baseline="text-before-edge" transform="translate(0,0)"/></g><g transform="translate(228,361)"><text x="0" y="0" text-anchor="middle" dominant-baseline="text-before-edge" transform="translate(0,0)"/></g><g transform="translate(169,200)"><text x="0" y="0" text-anchor="middle" dominant-baseline="text-before-edge" transform="translate(0,0)"/></g><g transform="translate(205,289)"><text x="0" y="0" text-anchor="middle" dominant-baseline="text-before-edge" transform="translate(0,0)"/></g><g transform="translate(161,178)"><text x="0" y="0" text-anchor="middle" dominant-baseline="text-before-edge" transform="translate(0,0)"/></g><g transform="translate(254,422)"><text x="0" y="0" text-anchor="middle" dominant-baseline="text-before-edge" transform="translate(0,0)"/></g><g transform="translate(250,428)"><text x="0" y="0" text-anchor="middle" dominant-baseline="text-before-edge" transform="translate(0,0)"/></g><g transform="translate(230,378)"><text x="0" y="0" text-anchor="middle" dominant-baseline="text-before-edge" transform="translate(0,0)"/></g><g transform="translate(254,439)"><text x="0" y="0" text-anchor="middle" dominant-baseline="text-before-edge" transform="translate(0,0)"/></g><g transform="translate(220,344)"><text x="0" y="0" text-anchor="middle" dominant-baseline="text-before-edge" transform="translate(0,0)"/></g><g transform="translate(235,383)"><text x="0" y="0" text-anchor="middle" dominant-baseline="text-before-edge" transform="translate(0,0)"/></g><g transform="translate(226,372)"><text x="0" y="0" text-anchor="middle" dominant-baseline="text-before-edge" transform="translate(0,0)"/></g><g transform="translate(196,289)"><text x="0" y="0" text-anchor="middle" dominant-baseline="text-before-edge" transform="translate(0,0)"/></g></g></g></g><text y="4" x="4" style="font-family: Arial, sans-serif; font-size: 12px; fill: black; font-weight: bold; dominant-baseline: hanging;"/></g></g><g id="grid"><rect x="0" y="0" width="1600" height="600" fill="none" stroke="#ccc"/></g><clipPath id="serieClipPath"><rect x="-50" y="-50" width="1600" height="600"/></clipPath><g id="legend" transform="translate(1600,50)"><g transform="translate(5,0)"><g class="legendSize" transform="translate(0,0)"><g class="legendCells" transform="translate(38,16)"><g class="cell" transform="translate(0, 1)"><circle class="swatch" r="1" fill="none" stroke="#ccc"/><text class="label" transform="translate( 43,&#xA;          5)" font-family="&quot;Arial&quot;, sans-serif" font-size="10px"><tspan x="0" dy="0em">0.1</tspan></text></g><g class="cell" transform="translate(0, 54.5)"><circle class="swatch" r="38" fill="none" stroke="#ccc"/><text class="label" transform="translate( 43,&#xA;          5)" font-family="&quot;Arial&quot;, sans-serif" font-size="10px"><tspan x="0" dy="0em">85.6</tspan></text></g></g><text class="legendTitle" font-family="&quot;Arial&quot;, sans-serif" font-size="12px" font-weight="bold"><tspan x="0" dy="0em">Total biocapacity</tspan></text></g><g class="legendColor" transform="translate(0,141.5)"><g class="legendCells" transform="translate(0,16)"><g class="cell" transform="translate(0, 0)"><rect class="swatch" height="15" width="15" style="fill: rgb(102, 197, 204);"/><text class="label" transform="translate( 20, 12.5)" font-family="&quot;Arial&quot;, sans-serif" font-size="10px"><tspan x="0" dy="0em">Africa</tspan></text></g><g class="cell" transform="translate(0, 21)"><rect class="swatch" height="15" width="15" style="fill: rgb(246, 207, 113);"/><text class="label" transform="translate( 20, 12.5)" font-family="&quot;Arial&quot;, sans-serif" font-size="10px"><tspan x="0" dy="0em">Asia-Pacific</tspan></text></g><g class="cell" transform="translate(0, 42)"><rect class="swatch" height="15" width="15" style="fill: rgb(248, 156, 116);"/><text class="label" transform="translate( 20, 12.5)" font-family="&quot;Arial&quot;, sans-serif" font-size="10px"><tspan x="0" dy="0em">Central America/Caribbean</tspan></text></g><g class="cell" transform="translate(0, 63)"><rect class="swatch" height="15" width="15" style="fill: rgb(220, 176, 242);"/><text class="label" transform="translate( 20, 12.5)" font-family="&quot;Arial&quot;, sans-serif" font-size="10px"><tspan x="0" dy="0em">EU-27</tspan></text></g><g class="cell" transform="translate(0, 84)"><rect class="swatch" height="15" width="15" style="fill: rgb(135, 197, 95);"/><text class="label" transform="translate( 20, 12.5)" font-family="&quot;Arial&quot;, sans-serif" font-size="10px"><tspan x="0" dy="0em">Middle East/Central Asia</tspan></text></g><g class="cell" transform="translate(0, 105)"><rect class="swatch" height="15" width="15" style="fill: rgb(158, 185, 243);"/><text class="label" transform="translate( 20, 12.5)" font-family="&quot;Arial&quot;, sans-serif" font-size="10px"><tspan x="0" dy="0em">North America</tspan></text></g><g class="cell" transform="translate(0, 126)"><rect class="swatch" height="15" width="15" style="fill: rgb(254, 136, 177);"/><text class="label" transform="translate( 20, 12.5)" font-family="&quot;Arial&quot;, sans-serif" font-size="10px"><tspan x="0" dy="0em">Other Europe</tspan></text></g><g class="cell" transform="translate(0, 147)"><rect class="swatch" height="15" width="15" style="fill: rgb(201, 219, 116);"/><text class="label" transform="translate( 20, 12.5)" font-family="&quot;Arial&quot;, sans-serif" font-size="10px"><tspan x="0" dy="0em">South America</tspan></text></g></g><text class="legendTitle" font-family="&quot;Arial&quot;, sans-serif" font-size="12px" font-weight="bold"><tspan x="0" dy="0em">Region</tspan></text></g></g></g></svg>